<svg width="32" height="32" viewBox="0 0 32 32" fill="none" xmlns="http://www.w3.org/2000/svg">
<g clip-path="url(#clip0_753_2908)">
<path d="M29.6921 0H2.30786C1.0332 0 0 1.0332 0 2.30786V29.6921C0 30.9668 1.0332 32 2.30786 32H29.6921C30.9668 32 32 30.9668 32 29.6921V2.30786C32 1.0332 30.9668 0 29.6921 0Z" fill="black"/>
<g clip-path="url(#clip1_753_2908)">
<path d="M2 11.0471H2.18497C2.69364 11.0471 4.40462 10.9999 5.05202 10.9999C8.9133 10.9999 10.4855 13.3097 10.4855 15.973C10.4855 18.7777 8.63584 21.111 4.93642 21.111C4.42775 21.111 3.15607 21.0875 2.23121 21.0875H2V11.0471ZM4.21965 13.1919V18.9191C4.49711 18.9427 4.75145 18.9427 5.0289 18.9427C6.92486 18.9427 8.15029 17.8585 8.15029 15.973C8.15029 14.1346 6.83237 13.1447 5.05202 13.1447C4.75145 13.1447 4.47399 13.1683 4.21965 13.1919Z" fill="white"/>
<path d="M16.1271 11C19.0635 11 21.26 12.9798 21.26 16.1852C21.26 19.2256 19.0635 21.3704 16.1271 21.3704C13.1907 21.3704 10.9941 19.3906 10.9941 16.1852C10.9941 13.2862 13.0519 11 16.1271 11ZM16.1271 19.2256C17.9537 19.2256 18.9248 17.8822 18.9248 16.1852C18.9248 14.3468 17.6993 13.1448 16.1271 13.1448C14.5086 13.1448 13.3294 14.3468 13.3294 16.1852C13.3294 17.9057 14.578 19.2256 16.1271 19.2256Z" fill="white"/>
<path d="M29.9763 16.8922C29.9763 19.9562 28.1035 21.2053 26.0225 21.2053C23.5254 21.2053 21.8145 19.7205 21.8145 16.7979V10.9999H24.0341V16.303C24.0341 17.8585 24.4965 19.0605 26.0457 19.0605C27.3867 19.0605 27.7798 18.0471 27.7798 16.4444V11.0235H29.9994L29.9763 16.8922Z" fill="white"/>
</g>
</g>
<defs>
<clipPath id="clip0_753_2908">
<rect width="32" height="32" fill="white"/>
</clipPath>
<clipPath id="clip1_753_2908">
<rect width="28" height="11" fill="white" transform="translate(2 11)"/>
</clipPath>
</defs>
</svg>
