<svg width="287" height="311" viewBox="0 0 287 311" fill="none" xmlns="http://www.w3.org/2000/svg">
<path d="M143.289 131.416H142.701L73.9916 91.5216C73.4043 90.9349 73.4043 90.3483 73.4043 89.7616C73.9916 89.1749 74.5788 89.1749 75.1661 89.1749L143.289 128.482L211.411 89.1749C211.999 88.5882 212.586 89.1749 213.173 89.7616C213.76 90.3483 213.173 90.9349 212.586 91.5216L143.876 131.416C143.876 130.829 143.289 131.416 143.289 131.416Z" fill="#2565D0"/>
<path d="M143.287 86.8295H142.7L73.4027 46.9354C72.8154 46.9354 72.8154 46.3487 72.8154 45.762C72.8154 45.1754 72.8154 44.5887 73.4027 44.5887L142.113 4.69458C142.7 4.69458 143.287 4.69458 143.287 4.69458L211.997 44.5887C212.584 44.5887 212.584 45.1754 212.584 45.762C212.584 46.3487 212.584 46.9354 211.997 46.9354L143.287 86.8295C143.874 86.8295 143.287 86.8295 143.287 86.8295ZM76.9263 45.762L143.287 83.8961L209.648 45.762L143.287 7.62797L76.9263 45.762Z" fill="#2565D0"/>
<path d="M137.418 126.724C136.831 126.138 136.831 126.138 137.418 126.138L142.703 123.204H143.291V123.791L137.418 126.724C137.418 126.724 138.005 126.724 137.418 126.724Z" fill="#2565D0"/>
<path d="M134.479 125.551C134.479 125.551 134.479 124.964 134.479 125.551C133.891 124.964 133.891 124.964 134.479 124.964L142.7 120.27H143.287V120.857L134.479 125.551Z" fill="#2565D0"/>
<path d="M132.13 123.79C132.13 123.79 131.543 123.79 132.13 123.79C131.543 123.203 131.543 123.203 132.13 123.203L142.701 116.75H143.288V117.336L132.13 123.79Z" fill="#2565D0"/>
<path d="M129.195 122.03C128.608 121.443 128.608 121.443 129.195 121.443L142.702 113.817H143.29V114.403L129.195 122.03Z" fill="#2565D0"/>
<path d="M126.845 120.269C126.257 120.269 126.257 120.269 126.845 120.269C126.257 119.683 126.257 119.683 126.845 119.683L142.701 110.296H143.288V110.883L126.845 120.269Z" fill="#2565D0"/>
<path d="M123.907 119.096C123.32 118.509 123.32 118.509 123.907 118.509L142.7 107.362H143.287V107.949L123.907 119.096Z" fill="#2565D0"/>
<path d="M120.973 117.336C120.385 116.75 120.385 116.75 120.973 116.75L142.701 104.43H143.289V105.016L120.973 117.336Z" fill="#2565D0"/>
<path d="M118.622 115.576C118.035 115.576 118.035 115.576 118.622 115.576C118.035 114.99 118.035 114.99 118.622 114.99L143.287 100.909H143.874V101.496L118.622 115.576Z" fill="#2565D0"/>
<path d="M115.688 113.816C115.688 113.816 115.1 113.816 115.688 113.816C115.1 113.229 115.1 113.229 115.688 113.229L143.289 97.389H143.876V97.9757L115.688 113.816Z" fill="#2565D0"/>
<path d="M112.752 112.643C112.752 112.643 112.752 112.057 112.752 112.643C112.165 112.057 112.165 112.057 112.752 112.057L142.702 94.4562H143.29V95.0429L112.752 112.643C113.339 112.643 113.339 112.643 112.752 112.643Z" fill="#2565D0"/>
<path d="M109.813 110.883C109.225 110.296 109.225 110.296 109.813 110.296L142.699 91.5227H143.287V92.1094L109.813 110.883C110.4 110.883 110.4 110.883 109.813 110.883Z" fill="#2565D0"/>
<path d="M104.529 107.949C103.942 107.363 103.942 107.363 104.529 107.363L142.701 85.069H143.289V85.6556L104.529 107.949Z" fill="#2565D0"/>
<path d="M106.623 110.081C106.036 109.494 106.036 109.494 106.623 109.494L144.795 87.2002H145.382V87.7869L106.623 110.081Z" fill="#2565D0"/>
<path d="M101.594 106.189C101.007 105.603 101.007 105.603 101.594 105.603L140.353 83.309H140.94V83.8956L101.594 106.189C102.181 106.189 102.181 106.189 101.594 106.189Z" fill="#2565D0"/>
<path d="M99.2432 104.429C98.6559 104.429 98.6559 104.429 99.2432 104.429C98.6559 103.843 98.6559 103.843 99.2432 103.843L137.415 81.5488H138.003V82.1355L99.2432 104.429Z" fill="#2565D0"/>
<path d="M96.3086 102.669C96.3086 102.669 95.7213 102.669 96.3086 102.669C95.7213 102.082 95.7213 102.082 96.3086 102.082L135.068 79.7887H135.655V80.3754L96.3086 102.669Z" fill="#2565D0"/>
<path d="M93.3682 101.496C92.7809 100.91 92.7809 100.91 93.3682 100.91L131.54 78.6158H132.128V79.2025L93.3682 101.496C93.9554 101.496 93.9554 101.496 93.3682 101.496Z" fill="#2565D0"/>
<path d="M91.0235 99.7361C90.4362 99.7361 90.4362 99.7361 91.0235 99.7361C90.4362 99.1495 90.4362 99.1495 91.0235 99.1495L129.196 76.8557H129.783V77.4424L91.0235 99.7361Z" fill="#2565D0"/>
<path d="M88.085 98.5623C87.4977 98.5623 87.4977 97.9756 88.085 98.5623C87.4977 97.9756 87.4977 97.9756 88.085 97.9756L126.844 75.6819H127.432V76.2686L88.085 98.5623Z" fill="#2565D0"/>
<path d="M85.1504 96.8033C84.5631 96.2166 84.5631 96.2166 85.1504 96.2166L123.323 73.9229H123.91V74.5095L85.1504 96.8033C85.7377 96.8033 85.7377 96.8033 85.1504 96.8033Z" fill="#2565D0"/>
<path d="M82.8018 95.0422C82.2145 95.0422 82.2145 95.0422 82.8018 95.0422C82.2145 94.4555 82.2145 94.4555 82.8018 94.4555L120.974 72.1617H121.561V72.7484L82.8018 95.0422Z" fill="#2565D0"/>
<path d="M79.8653 93.2831C79.8653 93.2831 79.278 93.2831 79.8653 93.2831C79.278 92.6964 79.278 92.6964 79.8653 92.6964L118.037 70.4026H118.625V70.9893L79.8653 93.2831Z" fill="#2565D0"/>
<path d="M76.3408 92.1093C75.7536 91.5226 75.7536 91.5226 76.3408 91.5226L115.688 69.2289H116.275V69.8156L76.3408 92.1093Z" fill="#2565D0"/>
<path d="M74.5791 90.3502C73.9919 90.3502 73.9919 90.3502 74.5791 90.3502C73.9919 89.7635 73.9919 89.7635 74.5791 89.7635L112.751 67.4697H113.339V68.0564L74.5791 90.3502Z" fill="#2565D0"/>
<path d="M73.9922 87.4157C73.9922 87.4157 73.9922 86.829 73.9922 87.4157C73.4049 86.829 73.4049 86.829 73.9922 86.829L110.403 65.7086H110.99V66.2953L73.9922 87.4157C74.5795 87.4157 74.5795 87.4157 73.9922 87.4157Z" fill="#2565D0"/>
<path d="M73.9922 83.8963C73.4049 83.3096 73.4049 83.3096 73.9922 83.3096L106.879 64.5359H107.466V65.1226L73.9922 83.8963C74.5795 83.8963 74.5795 83.8963 73.9922 83.8963Z" fill="#2565D0"/>
<path d="M74.5791 80.9627C73.9919 80.9627 73.9919 80.9627 74.5791 80.9627C73.9919 80.376 73.9919 80.376 74.5791 80.376L104.53 62.7756H105.117V63.3623L74.5791 80.9627Z" fill="#2565D0"/>
<path d="M73.9922 77.442C73.4049 76.8553 73.4049 76.8553 73.9922 76.8553L101.594 61.015H102.181V61.6017L73.9922 77.442C74.5795 77.442 74.5795 77.442 73.9922 77.442Z" fill="#2565D0"/>
<path d="M73.9922 74.5092C73.4049 73.9226 73.4049 73.9226 73.9922 73.9226L98.6573 59.8423H99.2446V60.429L73.9922 74.5092C74.5795 74.5092 74.5795 74.5092 73.9922 74.5092Z" fill="#2565D0"/>
<path d="M73.9922 71.5753C73.9922 71.5753 73.9922 70.9886 73.9922 71.5753C73.4049 70.9886 73.4049 70.9886 73.9922 70.9886L96.3082 58.0817H96.8955V58.6683L73.9922 71.5753C74.5795 71.5753 74.5795 71.5753 73.9922 71.5753Z" fill="#2565D0"/>
<path d="M74.5791 68.054C73.9919 68.054 73.9919 68.054 74.5791 68.054C73.9919 67.4673 73.9919 67.4673 74.5791 67.4673L93.9588 56.3204H94.5461V56.9071L74.5791 68.054Z" fill="#2565D0"/>
<path d="M73.9922 65.1217C73.4049 64.5351 73.4049 64.5351 73.9922 64.5351L90.4356 55.1482H91.0229V55.7349L73.9922 65.1217C74.5795 65.1217 74.5795 65.1217 73.9922 65.1217Z" fill="#2565D0"/>
<path d="M73.9922 61.6015C73.4049 61.0149 73.4049 61.0149 73.9922 61.0149L87.4993 53.3881H88.0866V53.9747L73.9922 61.6015C74.5795 61.6015 74.5795 61.6015 73.9922 61.6015Z" fill="#2565D0"/>
<path d="M73.9922 58.6686C73.4049 58.0819 73.4049 58.0819 73.9922 58.0819L85.1502 51.6284H85.7375V52.2151L73.9922 58.6686C74.5795 58.6686 74.5795 58.6686 73.9922 58.6686Z" fill="#2565D0"/>
<path d="M73.9922 55.1495C73.4049 54.5627 73.4049 54.5627 73.9922 54.5627L82.2139 49.8685H82.8012V50.4553L73.9922 55.1495C74.5795 55.1495 74.5795 55.1495 73.9922 55.1495Z" fill="#2565D0"/>
<path d="M74.5791 52.2157C73.9919 52.2157 73.9919 52.2157 74.5791 52.2157C73.9919 51.6289 73.9919 51.6289 74.5791 51.6289L79.8645 48.6951H80.4518V49.2818L74.5791 52.2157Z" fill="#2565D0"/>
<g opacity="0.5">
<path d="M148.574 126.724C148.574 126.724 147.987 126.724 148.574 126.724L142.701 123.203V122.616H143.288L148.574 125.55C148.574 126.137 149.161 126.137 148.574 126.724Z" fill="#2565D0"/>
<path d="M153.861 123.79L143.29 117.336V116.75H143.877L154.448 123.203C154.448 122.616 154.448 123.203 153.861 123.79C153.861 123.79 154.448 123.79 153.861 123.79Z" fill="#2565D0"/>
<path d="M159.146 120.27L143.29 111.469V110.883H143.877L159.733 120.27C159.733 119.683 159.733 120.27 159.146 120.27C159.733 120.27 159.733 120.27 159.146 120.27Z" fill="#2565D0"/>
<path d="M165.019 117.336L143.29 105.016V104.43H143.877L165.606 116.75C165.606 116.75 165.606 116.75 165.019 117.336Z" fill="#2565D0"/>
<path d="M170.303 113.816L142.701 97.9762V97.3895H143.288L170.89 113.23C170.89 113.23 170.89 113.816 170.303 113.816C170.303 113.816 170.89 113.816 170.303 113.816Z" fill="#2565D0"/>
<path d="M176.177 110.882C175.59 110.882 175.59 110.882 176.177 110.882L143.29 92.1088V91.5221H143.877L176.764 110.296C176.177 110.296 176.177 110.296 176.177 110.882Z" fill="#2565D0"/>
<path d="M181.462 107.949L143.29 85.6552V85.0685H143.877L182.049 107.362C182.049 106.776 182.049 107.362 181.462 107.949Z" fill="#2565D0"/>
<path d="M186.749 104.43L147.989 82.136V81.5493H148.577L186.749 103.843C187.336 103.843 187.336 104.43 186.749 104.43C187.336 104.43 187.336 104.43 186.749 104.43Z" fill="#2565D0"/>
<path d="M192.619 101.495C192.031 101.495 192.031 101.495 192.619 101.495L153.859 79.2015V78.6149H154.447L192.619 100.909C192.619 100.909 192.619 100.909 192.619 101.495Z" fill="#2565D0"/>
<path d="M197.904 98.5623L159.145 76.2686V75.6819H159.732L198.491 97.9757C198.491 97.389 198.491 97.9756 197.904 98.5623C198.491 98.5623 198.491 97.9756 197.904 98.5623Z" fill="#2565D0"/>
<path d="M203.188 95.0421L164.429 72.7483V72.1616H165.016L203.188 94.4554C203.775 94.4554 203.775 94.4554 203.188 95.0421C203.775 95.0421 203.775 95.0421 203.188 95.0421Z" fill="#2565D0"/>
<path d="M209.651 92.1092L170.305 69.8154V69.2288H170.892L210.239 91.5225C210.239 91.5225 210.239 92.1092 209.651 92.1092Z" fill="#2565D0"/>
<path d="M211.998 87.4156C211.411 87.4156 211.411 87.4156 211.998 87.4156L175.588 66.2952V65.7085H176.175L212.586 86.8289C211.998 86.2422 211.998 86.8289 211.998 87.4156C211.998 87.4156 211.998 86.8289 211.998 87.4156Z" fill="#2565D0"/>
<path d="M211.412 80.9622L180.874 63.3618V62.7751H181.461L211.412 80.3755C211.999 79.7888 211.999 80.3755 211.412 80.9622C211.999 80.9622 211.999 80.9622 211.412 80.9622Z" fill="#2565D0"/>
<path d="M211.998 74.5092C211.411 74.5092 211.411 74.5092 211.998 74.5092L186.746 60.429V59.8423H187.333L211.998 73.9226C211.998 73.9226 211.998 73.9226 211.998 74.5092Z" fill="#2565D0"/>
<path d="M211.412 68.055L192.032 56.9081V56.3214H192.619L211.412 67.4683C211.999 67.4683 211.999 67.4683 211.412 68.055C211.999 68.055 211.999 68.055 211.412 68.055Z" fill="#2565D0"/>
<path d="M212 61.6009C211.413 61.6009 211.413 61.6009 212 61.6009L198.493 53.9741V53.3875H199.08L212.588 61.0143C212 61.0143 212 61.0143 212 61.6009Z" fill="#2565D0"/>
<path d="M212.001 55.1493C211.414 55.1493 211.414 55.1493 212.001 55.1493L203.779 50.4551V49.8683H204.367L212.588 54.5625C212.001 54.5625 212.001 55.1493 212.001 55.1493Z" fill="#2565D0"/>
</g>
<path d="M211.999 91.5226C211.411 91.5226 210.824 90.9359 210.824 90.3493V45.7617C210.824 45.1751 211.411 44.5884 211.999 44.5884C212.586 44.5884 213.173 45.1751 213.173 45.7617V90.3493C213.173 90.9359 212.586 91.5226 211.999 91.5226Z" fill="#2565D0"/>
<path d="M143.293 131.416C142.705 131.416 142.118 130.83 142.118 130.243V85.6555C142.118 85.0689 142.705 84.4822 143.293 84.4822C143.88 84.4822 144.467 85.0689 144.467 85.6555V130.243C144.467 130.83 143.88 131.416 143.293 131.416Z" fill="#2565D0"/>
<path d="M74.5788 91.5226C73.9916 91.5226 73.4043 90.9359 73.4043 90.3493V45.7617C73.4043 45.1751 73.9916 44.5884 74.5788 44.5884C75.1661 44.5884 75.7533 45.1751 75.7533 45.7617V90.3493C75.7533 90.9359 75.1661 91.5226 74.5788 91.5226Z" fill="#2565D0"/>
<path d="M143.288 154.884H142.701L32.8822 91.5227C32.2949 91.5227 32.2949 90.936 32.2949 90.3494C32.2949 89.7627 32.2949 89.176 32.8822 89.176L73.9907 65.7089C74.5779 65.1222 75.1652 65.7089 75.7524 66.2955C76.3397 66.8822 75.7525 67.4689 75.1652 68.0556L36.4058 90.3494L143.288 151.951L250.17 90.3494L211.41 67.4689C210.823 66.8822 210.823 66.2955 210.823 65.7089C211.41 65.1222 211.998 65.1222 212.585 65.1222L253.693 88.5893C254.281 88.5893 254.281 89.176 254.281 89.7627C254.281 90.3494 254.281 90.936 253.693 90.936L143.875 154.884H143.288Z" fill="#2565D0"/>
<path d="M79.2764 264.592C78.6891 264.592 78.6891 264.006 79.2764 264.592C78.6891 264.006 78.6891 264.006 79.2764 264.006L83.9745 261.072H84.5618V261.658L79.2764 264.592Z" fill="#2565D0"/>
<path d="M76.3418 262.832C75.7546 262.832 75.7546 262.832 76.3418 262.832C75.7546 262.246 75.7546 262.246 76.3418 262.246L83.9762 258.138H84.5635V258.725L76.3418 262.832Z" fill="#2565D0"/>
<path d="M73.4053 261.071C72.818 260.485 72.818 260.485 73.4053 260.485L83.3888 254.618H83.9761V255.205L73.4053 261.071C73.4053 261.071 73.9926 261.071 73.4053 261.071Z" fill="#2565D0"/>
<path d="M70.4707 259.898C69.8835 259.312 69.8835 259.312 70.4707 259.312L83.3905 251.685H83.9778V252.271L70.4707 259.898C71.058 259.898 71.058 259.898 70.4707 259.898Z" fill="#2565D0"/>
<path d="M68.1221 258.139C67.5348 257.552 67.5348 257.552 68.1221 257.552L83.391 248.752H83.9782V249.338L68.1221 258.139Z" fill="#2565D0"/>
<path d="M65.7744 256.378C65.1872 256.378 65.1872 256.378 65.7744 256.378C65.1872 255.792 65.1872 255.792 65.7744 255.792L83.9796 245.232H84.5669V245.818L65.7744 256.378Z" fill="#2565D0"/>
<path d="M62.8369 254.618C62.2497 254.618 62.2497 254.618 62.8369 254.618C62.2497 254.031 62.2497 254.031 62.8369 254.031L83.9785 241.711H84.5657V242.298L62.8369 254.618Z" fill="#2565D0"/>
<path d="M59.8975 253.445C59.3102 252.858 59.3102 252.858 59.8975 252.858L83.388 238.778H83.9753V239.364L59.8975 253.445Z" fill="#2565D0"/>
<path d="M56.9629 251.685C56.3756 251.098 56.3756 251.098 56.9629 251.098L83.3898 235.844H83.9771V236.431L56.9629 251.685Z" fill="#2565D0"/>
<path d="M54.6143 249.924C54.027 249.924 54.027 249.924 54.6143 249.924C54.027 249.338 54.027 249.338 54.6143 249.338L83.9774 232.324H84.5647V232.911L54.6143 249.924Z" fill="#2565D0"/>
<path d="M51.6797 248.752C51.6797 248.752 51.0924 248.165 51.6797 248.752C51.0924 248.165 51.0924 248.165 51.6797 248.165L83.9792 229.391H84.5665V229.978L51.6797 248.752Z" fill="#2565D0"/>
<path d="M48.7412 246.992C48.154 246.405 48.154 246.405 48.7412 246.405L83.3898 226.458H83.9771V227.045L48.7412 246.992Z" fill="#2565D0"/>
<path d="M45.8047 245.231C45.2174 244.644 45.2174 244.644 45.8047 244.644L83.3896 222.937H83.9769V223.524L45.8047 245.231C46.392 245.231 46.392 245.231 45.8047 245.231Z" fill="#2565D0"/>
<path d="M43.4561 243.472C43.4561 243.472 42.8688 243.472 43.4561 243.472C42.8688 242.885 42.8688 242.885 43.4561 242.885L83.9773 219.418H84.5645V220.005L43.4561 243.472Z" fill="#2565D0"/>
<path d="M40.5186 242.298C39.9313 241.711 39.9313 241.711 40.5186 241.711L83.9761 217.07H84.5634V217.657L40.5186 242.298Z" fill="#2565D0"/>
<path d="M37.586 240.538C36.9987 239.952 36.9987 239.952 37.586 239.952L83.3925 213.551H83.9798V214.138L37.586 240.538Z" fill="#2565D0"/>
<path d="M35.2334 238.778C35.2334 238.778 34.6462 238.778 35.2334 238.778C34.6462 238.191 34.6462 238.191 35.2334 238.191L83.9763 210.031H84.5636V210.617L35.2334 238.778Z" fill="#2565D0"/>
<path d="M32.2979 237.605C31.7106 237.018 31.7106 237.018 32.2979 237.018L83.3898 207.684H83.9771V208.271L32.2979 237.605Z" fill="#2565D0"/>
<path d="M29.3633 235.844C28.776 235.257 28.776 235.257 29.3633 235.257L83.9788 204.163H84.5661V204.75L29.3633 235.844Z" fill="#2565D0"/>
<path d="M25.8369 234.671C25.2497 234.084 25.2497 234.084 25.8369 234.084L83.3888 200.644H83.976V201.23L25.8369 234.671C25.8369 234.671 26.4242 234.671 25.8369 234.671Z" fill="#2565D0"/>
<path d="M23.4883 232.912C22.901 232.912 22.901 232.912 23.4883 232.912C22.901 232.325 22.901 232.325 23.4883 232.325L83.9765 197.124H84.5637V197.711L23.4883 232.912Z" fill="#2565D0"/>
<path d="M20.5518 231.738C20.5518 231.738 19.9645 231.738 20.5518 231.738C19.9645 231.151 19.9645 231.151 20.5518 231.151L84.5635 194.19H85.1508V194.777L20.5518 231.738Z" fill="#2565D0"/>
<path d="M18.2051 229.977C18.2051 229.977 18.2051 229.391 18.2051 229.977C17.6178 229.391 17.6178 228.804 18.2051 228.804L83.3914 191.257H83.9787V191.843L18.2051 229.977Z" fill="#2565D0"/>
<path d="M15.2676 228.218C14.6803 228.218 14.6803 228.218 15.2676 228.218C14.6803 227.631 14.6803 227.631 15.2676 227.631L83.3902 187.737H83.9775V188.324L15.2676 228.218Z" fill="#2565D0"/>
<path d="M14.6787 225.284C14.0915 224.697 14.0915 224.697 14.6787 224.697L81.6268 185.977H82.2141V186.563L14.6787 225.284C14.6787 225.284 15.266 225.284 14.6787 225.284Z" fill="#2565D0"/>
<path d="M14.6787 222.35C14.0915 221.763 14.0915 221.763 14.6787 221.763L78.1032 185.389H78.6905V185.976L14.6787 222.35C14.6787 222.35 15.266 222.35 14.6787 222.35Z" fill="#2565D0"/>
<path d="M15.2676 218.831C14.6803 218.831 14.6803 218.831 15.2676 218.831C14.6803 218.244 14.6803 218.244 15.2676 218.244L75.7558 183.043H76.3431V183.63L15.2676 218.831Z" fill="#2565D0"/>
<path d="M14.6787 215.897C14.0915 215.311 14.0915 215.311 14.6787 215.311L72.2306 181.87H72.8178V182.457L14.6787 215.897C15.266 215.897 15.266 215.897 14.6787 215.897Z" fill="#2565D0"/>
<path d="M14.6787 212.378C14.0915 211.791 14.0915 211.791 14.6787 211.791L69.8815 180.11H70.4688V180.697L14.6787 212.378C14.6787 212.378 15.266 212.378 14.6787 212.378Z" fill="#2565D0"/>
<path d="M14.6787 209.444C14.0915 208.857 14.0915 208.857 14.6787 208.857L67.5325 178.35H68.1198V178.936L14.6787 209.444C14.6787 209.444 15.266 209.444 14.6787 209.444Z" fill="#2565D0"/>
<path d="M15.2676 205.924C14.6803 205.924 14.6803 205.924 15.2676 205.924C14.6803 205.337 14.6803 205.337 15.2676 205.337L64.5978 176.59H65.185V177.177L15.2676 205.924Z" fill="#2565D0"/>
<path d="M14.6787 202.99C14.0915 202.403 14.0915 202.403 14.6787 202.403L61.0726 175.416H61.6598V176.003L14.6787 202.99C15.266 202.99 15.266 202.99 14.6787 202.99Z" fill="#2565D0"/>
<path d="M14.6787 200.056C14.0915 199.47 14.0915 199.47 14.6787 199.47L58.1363 174.243H58.7235V174.829L14.6787 200.056C15.266 200.056 15.266 200.056 14.6787 200.056Z" fill="#2565D0"/>
<path d="M14.6787 196.537C14.0915 195.95 14.0915 195.95 14.6787 195.95L55.7872 171.897H56.3745V172.483L14.6787 196.537C14.6787 196.537 15.266 196.537 14.6787 196.537Z" fill="#2565D0"/>
<path d="M14.6787 193.604C14.0915 193.018 14.0915 193.018 14.6787 193.018L53.4382 170.724H54.0254V171.311L14.6787 193.604C14.6787 193.604 15.266 193.604 14.6787 193.604Z" fill="#2565D0"/>
<path d="M15.2676 190.084C14.6803 190.084 14.6803 190.084 15.2676 190.084C14.6803 189.498 14.6803 189.498 15.2676 189.498L51.0907 168.964H51.678V169.55L15.2676 190.084Z" fill="#2565D0"/>
<path d="M15.2676 187.151C14.6803 187.151 14.6803 187.151 15.2676 187.151C14.6803 186.564 14.6803 186.564 15.2676 186.564L48.1544 167.791H48.7416V168.377L15.2676 187.151Z" fill="#2565D0"/>
<path d="M14.6787 184.217C14.0915 183.631 14.0915 183.631 14.6787 183.631L44.6292 166.03H45.2165V166.617L14.6787 184.217C14.6787 184.217 15.266 184.217 14.6787 184.217Z" fill="#2565D0"/>
<path d="M15.2676 180.696C14.6803 180.696 14.6803 180.696 15.2676 180.696C14.6803 180.109 14.6803 180.109 15.2676 180.109L42.2817 164.269H42.869V164.856L15.2676 180.696Z" fill="#2565D0"/>
<path d="M15.2676 177.763C14.6803 177.763 14.6803 177.763 15.2676 177.763C14.6803 177.177 14.6803 177.177 15.2676 177.177L39.9327 163.096H40.5199V163.683L15.2676 177.763Z" fill="#2565D0"/>
<path d="M14.6787 174.83C14.6787 174.83 14.6787 174.243 14.6787 174.83C14.0915 174.243 14.0915 174.243 14.6787 174.243L36.9948 161.336H37.582V161.923L14.6787 174.83C14.6787 174.83 15.266 174.83 14.6787 174.83Z" fill="#2565D0"/>
<path d="M14.6787 171.31C14.0915 170.723 14.0915 170.723 14.6787 170.723L34.0584 159.576H34.6457V160.163L14.6787 171.31C14.6787 171.31 15.266 171.31 14.6787 171.31Z" fill="#2565D0"/>
<path d="M15.2676 167.789C15.2676 167.789 14.6803 167.789 15.2676 167.789C14.6803 167.203 14.6803 167.203 15.2676 167.203L31.711 157.816H32.2982V158.403L15.2676 167.789Z" fill="#2565D0"/>
<path d="M15.2689 164.856C14.6816 164.856 14.6816 164.856 15.2689 164.856C14.6816 164.269 14.6816 164.269 14.6816 164.269L28.1887 156.056H28.776V156.642L15.2689 164.856Z" fill="#2565D0"/>
<path d="M15.2676 161.923C15.2676 161.923 14.6803 161.337 15.2676 161.923C14.6803 161.337 14.6803 161.337 15.2676 161.337L25.8384 154.883H26.4256V155.47L15.2676 161.923Z" fill="#2565D0"/>
<path d="M15.2676 158.404C15.2676 158.404 14.6803 158.404 15.2676 158.404C14.6803 157.817 14.6803 157.817 15.2676 157.817L23.4893 153.123H24.0766V153.71L15.2676 158.404Z" fill="#2565D0"/>
<path d="M15.2676 155.47C15.2676 155.47 14.6803 155.47 15.2676 155.47C14.6803 154.884 14.6803 154.884 15.2676 154.884L20.553 151.95H21.1402V152.536L15.2676 155.47Z" fill="#2565D0"/>
<path d="M122.739 246.406C122.152 246.406 121.565 245.819 121.565 245.232V166.617L52.8548 126.723C52.2676 126.136 52.2676 125.55 52.2676 124.963C52.8548 124.376 53.4421 124.376 54.0294 124.376L123.326 164.271C123.914 164.271 123.914 164.857 123.914 165.444V244.646C123.914 245.232 123.326 246.406 122.739 246.406Z" fill="#2565D0"/>
<path d="M83.9772 268.112H83.3899L14.68 228.804C14.0928 228.804 14.0928 228.218 14.0928 227.631V148.43C14.0928 147.843 14.0928 147.256 14.68 147.256C15.2673 147.256 15.8546 147.256 15.8546 147.256L84.5644 187.15C85.1517 187.15 85.1517 187.737 85.1517 188.324V267.525C85.1517 268.112 85.1517 268.699 84.5644 268.699C84.5644 268.112 83.9772 268.112 83.9772 268.112ZM16.4418 226.458L82.8027 264.592V188.324L16.4418 150.19V226.458Z" fill="#2565D0"/>
<path d="M15.2654 149.016C14.6782 149.016 14.0909 149.016 14.0909 148.429C13.5036 147.842 14.0909 147.256 14.6782 146.669L52.8503 124.375C53.4376 123.788 54.0249 124.375 54.6121 124.962C55.1994 125.548 54.6121 126.135 54.0249 126.722L15.2654 149.016C15.8527 149.016 15.2654 149.016 15.2654 149.016Z" fill="#2565D0"/>
<path d="M83.9764 268.112C83.3891 268.112 82.8018 268.112 82.8018 267.525C82.2146 266.938 82.8018 266.352 83.3891 265.765L122.149 243.471C122.736 242.885 123.323 243.471 123.91 244.058C124.498 244.645 123.91 245.231 123.323 245.818L84.5636 268.112H83.9764Z" fill="#2565D0"/>
<path d="M143.288 281.605H142.701L101.592 258.138C101.005 257.551 101.005 256.965 101.005 256.378C101.592 255.791 102.179 255.791 102.767 255.791L141.526 278.085V154.296L34.644 92.6948V137.869C34.644 138.456 34.0567 139.042 33.4694 139.042C32.8822 139.042 32.2949 138.456 32.2949 137.869V90.348C32.2949 89.7614 32.2949 89.1747 32.8822 89.1747C33.4694 89.1747 34.0567 89.1747 34.0567 89.1747L143.875 152.536C144.462 152.536 144.462 153.123 144.462 153.709V280.432C144.462 281.018 144.462 281.605 143.875 281.605H143.288Z" fill="#2565D0"/>
<path d="M163.843 245.817C163.256 245.817 162.669 245.23 162.669 244.644V165.442C162.669 164.855 162.669 164.269 163.256 164.269L231.966 124.375C232.553 123.788 233.141 124.375 233.728 124.961C234.315 125.548 233.728 126.135 233.141 126.721L165.018 166.029V244.644C165.018 245.23 164.431 245.817 163.843 245.817Z" fill="#2565D0"/>
<path d="M202.015 268.113H201.428C200.841 268.113 200.841 267.527 200.841 266.94V187.738C200.841 187.152 200.841 186.565 201.428 186.565L270.138 146.671C270.725 146.671 271.313 146.671 271.313 146.671C271.9 146.671 271.9 147.258 271.9 147.844V227.046C271.9 227.632 271.9 228.219 271.313 228.219L202.603 268.113C202.603 268.113 202.603 268.113 202.015 268.113ZM203.777 188.325V264.593L270.138 226.459V150.191L203.777 188.325Z" fill="#2565D0"/>
<path d="M163.85 172.484C163.262 171.897 163.262 171.897 163.85 171.897L169.135 168.963H169.722V169.55L163.85 172.484Z" fill="#2565D0"/>
<path d="M163.85 175.418C163.262 175.418 163.262 175.418 163.85 175.418C163.262 174.831 163.262 174.831 163.85 174.831L172.071 170.137H172.659V170.723L163.85 175.418Z" fill="#2565D0"/>
<path d="M163.85 178.936C163.85 178.936 163.85 178.349 163.85 178.936C163.262 178.349 163.262 178.349 163.85 178.349L174.42 172.482H175.008V173.069L163.85 178.936C163.85 178.936 163.85 178.349 163.85 178.936Z" fill="#2565D0"/>
<path d="M163.85 181.87C163.85 181.87 163.262 181.87 163.85 181.87C163.262 181.283 163.262 181.283 163.85 181.283L177.357 173.656H177.944V174.243L163.85 181.87Z" fill="#2565D0"/>
<path d="M163.85 184.802C163.262 184.215 163.262 184.215 163.85 184.215L179.706 175.415H180.293V176.002L163.85 184.802Z" fill="#2565D0"/>
<path d="M163.85 187.736C163.262 187.15 163.262 187.15 163.85 187.15L183.229 176.589H183.817V177.176L163.85 187.736Z" fill="#2565D0"/>
<path d="M163.85 191.257C163.262 190.67 163.262 190.67 163.85 190.67L185.578 178.35H186.166V178.937L163.85 191.257Z" fill="#2565D0"/>
<path d="M163.85 194.19C163.262 193.603 163.262 193.603 163.85 193.603L188.515 179.523H189.102V180.11L163.85 194.19Z" fill="#2565D0"/>
<path d="M163.85 197.71C163.262 197.123 163.262 197.123 163.85 197.123L191.451 181.283H192.038V181.87L163.85 197.71Z" fill="#2565D0"/>
<path d="M163.85 200.644C163.262 200.057 163.262 200.057 163.85 200.057L193.8 183.043H194.387V183.63L163.85 200.644C164.437 200.644 164.437 200.644 163.85 200.644Z" fill="#2565D0"/>
<path d="M163.85 204.164C163.262 203.577 163.262 203.577 163.85 203.577L196.736 184.803H197.324V185.39L163.85 204.164Z" fill="#2565D0"/>
<path d="M164.086 206.935C163.499 206.348 163.499 206.348 164.086 206.348L196.973 187.574H197.56V188.161L164.086 206.935Z" fill="#2565D0"/>
<path d="M163.85 210.617C163.85 210.617 163.85 210.031 163.85 210.617C163.262 210.031 163.262 210.031 163.85 210.031L202.022 188.324H202.609V188.91L163.85 210.617Z" fill="#2565D0"/>
<path d="M163.85 213.551C163.262 212.964 163.262 212.964 163.85 212.964L202.609 190.67H203.196V191.257L163.85 213.551Z" fill="#2565D0"/>
<path d="M163.85 216.483C163.262 215.897 163.262 215.897 163.85 215.897L202.022 193.603H202.609V194.19L163.85 216.483Z" fill="#2565D0"/>
<path d="M163.85 220.004C163.262 219.417 163.262 219.417 163.85 219.417L202.022 197.123H202.609V197.71L163.85 220.004Z" fill="#2565D0"/>
<path d="M163.85 222.938C163.262 222.351 163.262 222.351 163.85 222.351L202.022 200.057H202.609V200.644L163.85 222.938Z" fill="#2565D0"/>
<path d="M163.85 226.458C163.85 226.458 163.85 225.871 163.85 226.458C163.262 225.871 163.262 225.871 163.85 225.871L202.022 203.578H202.609V204.164L163.85 226.458Z" fill="#2565D0"/>
<path d="M163.85 229.391C163.85 229.391 163.262 229.391 163.85 229.391C163.262 228.804 163.262 228.804 163.85 228.804L202.609 206.51H203.196V207.097L163.85 229.391Z" fill="#2565D0"/>
<path d="M163.85 232.325C163.262 231.738 163.262 231.738 163.85 231.738L202.022 209.444H202.609V210.031L163.85 232.325Z" fill="#2565D0"/>
<path d="M163.85 235.844C163.262 235.257 163.262 235.257 163.85 235.257L202.022 212.964H202.609V213.55L163.85 235.844Z" fill="#2565D0"/>
<path d="M163.85 238.778C163.262 238.191 163.262 238.191 163.85 238.191L202.022 215.897H202.609V216.484L163.85 238.778Z" fill="#2565D0"/>
<path d="M163.265 242.298C163.265 242.298 162.677 242.298 163.265 242.298C162.677 241.711 162.677 241.711 163.265 241.711L202.611 219.417H203.199V220.004L163.265 242.298Z" fill="#2565D0"/>
<path d="M163.85 245.231C163.262 244.644 163.262 244.644 163.85 244.644L202.022 222.351H202.609V222.937L163.85 245.231Z" fill="#2565D0"/>
<path d="M166.787 246.991C166.2 246.991 166.2 246.991 166.787 246.991C166.2 246.404 166.2 246.404 166.787 246.404L203.197 225.283H203.785V225.87L166.787 246.991Z" fill="#2565D0"/>
<path d="M169.135 248.751C169.135 248.751 169.135 248.164 169.135 248.751C168.548 248.164 168.548 248.164 169.135 248.164L202.022 229.39H202.609V229.977L169.135 248.751C169.135 248.751 169.722 248.751 169.135 248.751Z" fill="#2565D0"/>
<path d="M172.072 249.925C171.485 249.338 171.485 249.338 172.072 249.338L202.023 231.738H202.61V232.324L172.072 249.925Z" fill="#2565D0"/>
<path d="M175.01 251.685C174.423 251.685 174.423 251.685 175.01 251.685C174.423 251.098 174.423 251.098 175.01 251.098L202.611 235.258H203.198V235.845L175.01 251.685Z" fill="#2565D0"/>
<path d="M177.357 253.445C176.77 252.858 176.77 252.858 177.357 252.858L202.023 238.778H202.61V239.364L177.357 253.445C177.357 253.445 177.945 253.445 177.357 253.445Z" fill="#2565D0"/>
<path d="M180.296 254.618C179.709 254.031 179.709 254.031 180.296 254.031L202.612 241.124H203.199V241.711L180.296 254.618Z" fill="#2565D0"/>
<path d="M183.228 256.378C183.228 256.378 182.64 256.378 183.228 256.378C182.64 255.791 182.64 255.791 183.228 255.791L202.607 244.645H203.195V245.231L183.228 256.378Z" fill="#2565D0"/>
<path d="M185.579 258.138C184.992 257.551 184.992 257.551 185.579 257.551L202.023 248.164H202.61V248.751L185.579 258.138C186.166 258.138 186.166 258.138 185.579 258.138Z" fill="#2565D0"/>
<path d="M188.514 259.898C188.514 259.898 188.514 259.311 188.514 259.898C187.926 259.311 187.926 259.311 188.514 259.311L202.021 251.684H202.608V252.271L188.514 259.898C188.514 259.898 188.514 259.311 188.514 259.898Z" fill="#2565D0"/>
<path d="M191.454 261.072C190.867 261.072 190.867 261.072 191.454 261.072C190.867 260.485 190.867 260.485 191.454 260.485L202.612 254.032H203.199V254.618L191.454 261.072Z" fill="#2565D0"/>
<path d="M193.802 262.833C193.215 262.246 193.215 262.246 193.802 262.246L202.024 257.552H202.611V258.139L193.802 262.833C194.389 262.833 194.389 262.833 193.802 262.833Z" fill="#2565D0"/>
<path d="M196.737 264.592C196.737 264.592 196.737 264.006 196.737 264.592C196.15 264.006 196.15 264.006 196.737 264.006L202.023 261.072H202.61V261.658L196.737 264.592C196.737 264.592 197.325 264.006 196.737 264.592Z" fill="#2565D0"/>
<path d="M271.314 149.017H270.727L231.967 126.723C231.38 126.136 231.38 125.55 231.38 124.963C231.967 124.376 232.554 124.376 233.142 124.376L271.901 146.67C272.488 147.257 272.488 147.844 272.488 148.43C271.901 149.017 271.314 149.017 271.314 149.017Z" fill="#2565D0"/>
<path d="M202.02 188.91H201.433L162.673 166.616C162.086 166.029 162.086 165.443 162.086 164.856C162.673 164.269 163.26 164.269 163.848 164.269L202.607 186.563C203.194 187.15 203.194 187.736 203.194 188.323C203.194 188.91 202.607 188.91 202.02 188.91Z" fill="#2565D0"/>
<path d="M202.02 268.111H201.433L162.673 245.818C162.086 245.231 162.086 244.644 162.086 244.057C162.673 243.471 163.26 243.471 163.848 243.471L202.607 265.765C203.194 266.351 203.194 266.938 203.194 267.525C203.194 268.111 202.607 268.111 202.02 268.111Z" fill="#2565D0"/>
<path d="M143.292 292.753C143.292 292.753 142.705 292.753 143.292 292.753L22.9033 223.525C22.9033 223.525 22.9033 223.525 22.9033 222.938V83.8955V83.3088L142.705 14.6675H143.292L263.682 83.8955C263.682 83.8955 263.682 83.8955 263.682 84.4822V222.938V223.525L143.292 292.753ZM23.4906 222.352L143.292 291.58L263.094 222.352V84.4822L143.292 15.2542L23.4906 84.4822V222.352Z" fill="#2565D0"/>
<path d="M143.288 306.833C143.288 306.833 142.701 306.833 143.288 306.833L9.97949 230.564C9.97949 230.564 9.97949 230.564 9.97949 229.978V76.8548V76.2681L142.701 0H143.288L276.01 76.2681C276.01 76.2681 276.01 76.2681 276.01 76.8548V229.978V230.564L143.288 306.833ZM11.154 229.978L143.288 306.246L275.423 229.978V77.4415L143.288 1.17336L11.154 77.4415V229.978V229.978Z" fill="#2565D0"/>
<path d="M206.745 187.888C206.745 190.182 204.969 191.966 202.685 191.966C200.401 191.966 198.625 190.182 198.625 187.888C198.625 185.595 200.401 183.811 202.685 183.811C204.969 183.811 206.745 185.595 206.745 187.888Z" fill="#2565D0"/>
<path d="M280.713 76.8546C280.713 79.788 278.364 81.548 276.014 81.548C273.078 81.548 271.316 79.2013 271.316 76.8546C271.316 74.5078 273.665 72.1611 276.014 72.1611C278.364 72.1611 280.713 74.5078 280.713 76.8546Z" fill="#2565D0"/>
<path d="M147.991 306.245C147.991 309.179 145.642 310.939 143.293 310.939C140.944 310.939 138.595 308.592 138.595 306.245C138.595 303.312 140.944 301.552 143.293 301.552C145.642 301.552 147.991 303.898 147.991 306.245Z" fill="#2565D0"/>
<path d="M148.578 281.019C148.578 283.952 146.229 285.712 143.88 285.712C140.943 285.712 139.182 283.366 139.182 281.019C139.182 278.086 141.531 276.326 143.88 276.326C146.229 276.326 148.578 278.086 148.578 281.019Z" fill="#2565D0"/>
<path d="M38.1697 90.3489C38.1697 93.2823 35.8206 95.0423 33.4716 95.0423C30.5352 95.0423 28.7734 92.6956 28.7734 90.3489C28.7734 87.4155 31.1225 85.6554 33.4716 85.6554C35.8206 85.0688 38.1697 87.4155 38.1697 90.3489Z" fill="#2565D0"/>
<path d="M237.84 126.135C237.84 129.069 235.491 130.829 233.141 130.829C230.205 130.829 228.443 128.482 228.443 126.135C228.443 123.202 230.792 121.442 233.141 121.442C235.491 121.442 237.84 123.789 237.84 126.135Z" fill="#2565D0"/>
<path d="M147.991 129.07C147.991 132.003 145.642 133.763 143.293 133.763C140.944 133.763 138.595 131.417 138.595 129.07C138.595 126.136 140.944 124.376 143.293 124.376C145.642 124.376 147.991 126.723 147.991 129.07Z" fill="#2565D0"/>
<path d="M280.475 229.908C280.475 232.842 278.126 234.602 275.777 234.602C273.428 234.602 271.079 232.255 271.079 229.908C271.079 226.975 273.428 225.215 275.777 225.215C278.126 225.215 280.475 227.562 280.475 229.908Z" fill="#2565D0"/>
<path d="M15.2693 76.8546C15.2693 79.788 12.9202 81.548 10.5712 81.548C8.2221 81.548 5.87305 79.2013 5.87305 76.8546C5.87305 74.5079 8.2221 72.1611 10.5712 72.1611C12.9202 72.1611 15.2693 74.5079 15.2693 76.8546Z" fill="#2565D0"/>
<path d="M15.2693 229.328C15.2693 232.261 12.9202 234.021 10.5712 234.021C8.2221 234.021 5.87305 231.675 5.87305 229.328C5.87305 226.981 8.2221 224.635 10.5712 224.635C12.9202 224.635 15.2693 226.981 15.2693 229.328Z" fill="#2565D0"/>
<path d="M152.097 85.0689C152.097 90.349 147.986 94.4557 142.701 94.4557C137.416 94.4557 133.305 90.349 133.305 85.0689C133.305 79.7888 137.416 75.682 142.701 75.682C147.986 76.2687 152.097 80.3754 152.097 85.0689Z" fill="#2565D0"/>
<path d="M143.291 108.536C130.371 108.536 120.388 97.9753 120.388 85.6551C120.388 72.7482 130.958 62.7747 143.291 62.7747C156.211 62.7747 166.194 73.3349 166.194 85.6551C166.194 97.9753 155.624 108.536 143.291 108.536ZM143.291 63.3613C130.958 63.3613 120.975 73.3349 120.975 85.6551C120.975 97.9753 130.958 107.949 143.291 107.949C155.624 107.949 165.607 97.9753 165.607 85.6551C165.02 73.3349 155.624 63.3613 143.291 63.3613Z" fill="#2565D0"/>
<path d="M276.017 87.4152C270.144 87.4152 265.446 82.7218 265.446 76.855C265.446 70.9882 270.144 66.2948 276.017 66.2948C281.89 66.2948 286.588 70.9882 286.588 76.855C286.001 82.7218 281.89 87.4152 276.017 87.4152ZM276.017 67.4682C270.732 67.4682 266.621 71.5749 266.621 76.855C266.621 82.1351 270.732 86.2418 276.017 86.2418C281.302 86.2418 285.413 82.1351 285.413 76.855C285.413 71.5749 281.302 67.4682 276.017 67.4682Z" fill="#2565D0"/>
<path d="M276.017 239.889C270.144 239.889 265.446 235.196 265.446 229.329C265.446 223.462 270.144 218.769 276.017 218.769C281.89 218.769 286.588 223.462 286.588 229.329C286.001 235.196 281.89 239.889 276.017 239.889ZM276.017 219.942C270.732 219.942 266.621 224.049 266.621 229.329C266.621 234.609 270.732 238.716 276.017 238.716C281.302 238.716 285.413 234.609 285.413 229.329C285.413 224.049 281.302 219.942 276.017 219.942Z" fill="#2565D0"/>
<path d="M10.5707 87.4158C4.69811 87.4158 0 82.7224 0 76.8556C0 70.9888 4.69811 66.2954 10.5707 66.2954C16.4434 66.2954 21.1415 70.9888 21.1415 76.8556C21.1415 82.7224 16.4434 87.4158 10.5707 87.4158ZM10.5707 67.4688C5.28537 67.4688 1.17453 71.5755 1.17453 76.8556C1.17453 82.1357 5.28537 86.2425 10.5707 86.2425C15.8561 86.2425 19.967 82.1357 19.967 76.8556C19.967 71.5755 15.8561 67.4688 10.5707 67.4688Z" fill="#2565D0"/>
<path d="M10.5707 239.889C4.69811 239.889 0 235.196 0 229.329C0 223.462 4.69811 218.769 10.5707 218.769C16.4434 218.769 21.1415 223.462 21.1415 229.329C21.1415 235.196 16.4434 239.889 10.5707 239.889ZM10.5707 219.942C5.28537 219.942 1.17453 224.049 1.17453 229.329C1.17453 234.609 5.28537 238.716 10.5707 238.716C15.8561 238.716 19.967 234.609 19.967 229.329C19.967 224.049 15.8561 219.942 10.5707 219.942Z" fill="#2565D0"/>
</svg>
