<svg width="186" height="200" viewBox="0 0 186 200" fill="none" xmlns="http://www.w3.org/2000/svg">
<g clip-path="url(#clip0_936_5049)">
<path d="M43.6633 95.3213C39.3155 93.7398 35.4792 90.6777 32.9849 86.3576C27.3543 76.6051 30.6958 64.1346 40.4483 58.504L133.23 4.93635C138.663 1.79996 144.938 1.44739 150.405 3.43603C154.753 5.0175 158.59 8.07959 161.084 12.3997C166.714 22.1522 163.373 34.6227 153.62 40.2533L60.8385 93.8209C55.4061 96.9573 49.1304 97.3099 43.6633 95.3213Z" fill="#D9D9D9"/>
<path d="M13.4135 186.214C9.06578 184.632 5.2294 181.57 2.73518 177.25C-2.89543 167.498 0.44602 155.027 10.1985 149.397L132.91 78.5492C138.342 75.4128 144.618 75.0602 150.085 77.0488C154.433 78.6303 158.269 81.6924 160.764 86.0125C166.394 95.765 163.053 108.235 153.3 113.866L30.5888 184.714C25.1564 187.85 18.8807 188.203 13.4135 186.214Z" fill="#D9D9D9"/>
<path d="M41.6435 242.547C37.2957 240.965 33.4594 237.903 30.9651 233.583C25.3345 223.831 28.676 211.36 38.4285 205.729L71.3511 186.722C76.7835 183.585 83.0592 183.233 88.5263 185.221C92.8741 186.803 96.7105 189.865 99.2047 194.185C104.835 203.937 101.494 216.408 91.7413 222.039L58.8187 241.046C53.3863 244.183 47.1106 244.535 41.6435 242.547Z" fill="#D9D9D9"/>
<path d="M168.388 119.359C178.141 113.728 181.482 101.258 175.852 91.5051L160.762 86.0129C166.393 95.7654 163.051 108.236 153.299 113.867L168.388 119.359Z" fill="#D9D9D9"/>
<path d="M175.853 91.5051C173.359 87.185 169.522 84.1229 165.174 82.5414L150.093 77.0521C154.437 78.6344 158.271 81.6954 160.763 86.013L175.853 91.5051Z" fill="#D9D9D9"/>
<path d="M106.828 227.531C116.581 221.9 119.922 209.43 114.292 199.677L99.2021 194.185C104.833 203.938 101.491 216.408 91.7388 222.039L106.828 227.531Z" fill="#D9D9D9"/>
<path d="M168.709 45.7459C178.462 40.1153 181.803 27.6448 176.172 17.8923L161.083 12.4001C166.714 22.1526 163.372 34.6231 153.62 40.2537L168.709 45.7459Z" fill="#D9D9D9"/>
<path d="M114.294 199.677C111.8 195.357 107.963 192.295 103.615 190.714L88.5336 185.224C92.8782 186.807 96.7115 189.868 99.2042 194.185L114.294 199.677Z" fill="#D9D9D9"/>
<path d="M176.172 17.8921C173.678 13.572 169.842 10.5099 165.494 8.92841L150.412 3.43908C154.757 5.02137 158.59 8.0824 161.083 12.4L176.172 17.8921Z" fill="#D9D9D9"/>
<path d="M45.6779 190.206L168.389 119.358L153.3 113.866L30.5884 184.714L45.6779 190.206Z" fill="#D9D9D9"/>
<path d="M75.9289 99.3134L168.711 45.7458L153.621 40.2537L60.8394 93.8213L75.9289 99.3134Z" fill="#D9D9D9"/>
<path d="M86.4397 192.214C91.8721 189.077 98.1478 188.725 103.615 190.713L88.5254 185.221C83.0583 183.233 76.7826 183.585 71.3502 186.722L86.4397 192.214Z" fill="url(#paint0_linear_936_5049)"/>
<path d="M53.5163 211.222L86.4389 192.214L71.3494 186.721L38.4268 205.729L53.5163 211.222Z" fill="url(#paint1_linear_936_5049)"/>
<path d="M147.999 84.0415C153.431 80.9051 159.707 80.5526 165.174 82.5412L150.084 77.0491C144.617 75.0604 138.342 75.413 132.909 78.5494L10.1978 149.397L25.2873 154.889L147.999 84.0415Z" fill="url(#paint2_linear_936_5049)"/>
<path d="M148.318 10.4284C153.751 7.29208 160.026 6.93954 165.494 8.92816L150.404 3.43603C144.937 1.44739 138.661 1.79996 133.229 4.93635L40.4473 58.504L55.5368 63.9961L148.318 10.4284Z" fill="#2565D0"/>
<path d="M148.318 10.4284C153.751 7.29208 160.026 6.93954 165.494 8.92816L150.404 3.43603C144.937 1.44739 138.661 1.79996 133.229 4.93635L40.4473 58.504L55.5368 63.9961L148.318 10.4284Z" fill="url(#paint3_linear_936_5049)"/>
<path d="M28.5021 191.706C33.9692 193.695 40.245 193.342 45.6774 190.206L30.5879 184.714C25.1555 187.85 18.8797 188.203 13.4126 186.214L28.5021 191.706Z" fill="#D9D9D9"/>
<path d="M58.7511 100.814C64.2183 102.802 70.494 102.45 75.9263 99.3134L60.8368 93.8213C55.4045 96.9577 49.1287 97.3102 43.6616 95.3216L58.7511 100.814Z" fill="#D9D9D9"/>
<path d="M25.288 154.894C15.5355 160.525 12.1941 172.995 17.8247 182.748L2.73518 177.255C-2.89543 167.503 0.44602 155.032 10.1985 149.402L25.288 154.894Z" fill="url(#paint4_linear_936_5049)"/>
<path d="M28.495 191.708C24.1504 190.126 20.3174 187.065 17.8247 182.748L2.73518 177.255C5.2294 181.576 9.06546 184.638 13.4132 186.219L28.495 191.708Z" fill="url(#paint5_linear_936_5049)"/>
<path d="M55.5385 63.9963C45.786 69.6269 42.4446 82.0974 48.0752 91.8499L32.9857 86.3577C27.3551 76.6052 30.6965 64.1348 40.449 58.5042L55.5385 63.9963Z" fill="url(#paint6_linear_936_5049)"/>
<path d="M55.5385 63.9963C45.786 69.6269 42.4446 82.0974 48.0752 91.8499L32.9857 86.3577C27.3551 76.6052 30.6965 64.1348 40.449 58.5042L55.5385 63.9963Z" fill="url(#paint7_linear_936_5049)"/>
<path d="M58.7455 100.811C54.4009 99.2285 50.5679 96.1674 48.0752 91.8499L32.9857 86.3577C35.4799 90.6779 39.316 93.74 43.6637 95.3214L58.7455 100.811Z" fill="url(#paint8_linear_936_5049)"/>
<path d="M58.7455 100.811C54.4009 99.2285 50.5679 96.1674 48.0752 91.8499L32.9857 86.3577C35.4799 90.6779 39.316 93.74 43.6637 95.3214L58.7455 100.811Z" fill="url(#paint9_linear_936_5049)"/>
<rect x="37.8774" y="74.1917" width="147.916" height="40.7805" rx="20.3903" transform="rotate(-30 37.8774 74.1917)" fill="#2565D0"/>
<rect x="7.62695" y="165.084" width="182.475" height="40.7805" rx="20.3903" transform="rotate(-30 7.62695 165.084)" fill="#2565D0"/>
<rect x="35.8569" y="221.417" width="78.7962" height="40.7805" rx="20.3903" transform="rotate(-30 35.8569 221.417)" fill="#2565D0"/>
</g>
<defs>
<linearGradient id="paint0_linear_936_5049" x1="106.368" y1="166.458" x2="72.6338" y2="169.362" gradientUnits="userSpaceOnUse">
<stop offset="" stop-color="#B3C7FF"/>
<stop offset="1" stop-color="#2568D9"/>
</linearGradient>
<linearGradient id="paint1_linear_936_5049" x1="106.368" y1="166.458" x2="72.6338" y2="169.362" gradientUnits="userSpaceOnUse">
<stop offset="" stop-color="#B3C7FF"/>
<stop offset="1" stop-color="#2568D9"/>
</linearGradient>
<linearGradient id="paint2_linear_936_5049" x1="165.174" y1="55.0338" x2="113.587" y2="53.5518" gradientUnits="userSpaceOnUse">
<stop offset="" stop-color="#B3C7FF"/>
<stop offset="1" stop-color="#2568D9"/>
</linearGradient>
<linearGradient id="paint3_linear_936_5049" x1="165.494" y1="-14.0382" x2="123.871" y2="-15.2727" gradientUnits="userSpaceOnUse">
<stop offset="" stop-color="#B3C7FF"/>
<stop offset="1" stop-color="#2568D9"/>
</linearGradient>
<linearGradient id="paint4_linear_936_5049" x1="12.6941" y1="153.719" x2="7.0865" y2="191.493" gradientUnits="userSpaceOnUse">
<stop offset="" stop-color="#2669D9"/>
<stop offset="1" stop-color="#414F84"/>
</linearGradient>
<linearGradient id="paint5_linear_936_5049" x1="12.6941" y1="153.719" x2="7.0865" y2="191.493" gradientUnits="userSpaceOnUse">
<stop offset="" stop-color="#2669D9"/>
<stop offset="1" stop-color="#414F84"/>
</linearGradient>
<linearGradient id="paint6_linear_936_5049" x1="47.7746" y1="60.4507" x2="37.337" y2="100.596" gradientUnits="userSpaceOnUse">
<stop offset="" stop-color="#2565D0"/>
<stop offset="1" stop-color="#414F84"/>
</linearGradient>
<linearGradient id="paint7_linear_936_5049" x1="42.9445" y1="62.8214" x2="37.337" y2="100.596" gradientUnits="userSpaceOnUse">
<stop offset="" stop-color="#2669D9"/>
<stop offset="1" stop-color="#414F84"/>
</linearGradient>
<linearGradient id="paint8_linear_936_5049" x1="47.7746" y1="60.4507" x2="37.337" y2="100.596" gradientUnits="userSpaceOnUse">
<stop offset="" stop-color="#2565D0"/>
<stop offset="1" stop-color="#414F84"/>
</linearGradient>
<linearGradient id="paint9_linear_936_5049" x1="42.9445" y1="62.8214" x2="37.337" y2="100.596" gradientUnits="userSpaceOnUse">
<stop offset="" stop-color="#2669D9"/>
<stop offset="1" stop-color="#414F84"/>
</linearGradient>
<clipPath id="clip0_936_5049">
<rect width="186" height="200" fill="white"/>
</clipPath>
</defs>
</svg>
