<svg width="186" height="221" viewBox="0 0 186 221" fill="none" xmlns="http://www.w3.org/2000/svg">
<g clip-path="url(#clip0_753_2513)">
<path d="M43.6633 55.3213C39.3155 53.7398 35.4792 50.6777 32.9849 46.3576C27.3543 36.6051 30.6958 24.1346 40.4483 18.504L133.23 -35.0637C138.663 -38.2 144.938 -38.5526 150.405 -36.564C154.753 -34.9825 158.59 -31.9204 161.084 -27.6003C166.714 -17.8478 163.373 -5.3773 153.62 0.253311L60.8385 53.8209C55.4061 56.9573 49.1304 57.3099 43.6633 55.3213Z" fill="#D9D9D9"/>
<path d="M13.4135 146.214C9.06578 144.632 5.2294 141.57 2.73518 137.25C-2.89543 127.498 0.44602 115.027 10.1985 109.397L132.91 38.5492C138.342 35.4128 144.618 35.0602 150.085 37.0488C154.433 38.6303 158.269 41.6924 160.764 46.0125C166.394 55.765 163.053 68.2355 153.3 73.8661L30.5888 144.714C25.1564 147.85 18.8807 148.203 13.4135 146.214Z" fill="#D9D9D9"/>
<path d="M41.6435 202.547C37.2957 200.965 33.4594 197.903 30.9651 193.583C25.3345 183.831 28.676 171.36 38.4285 165.729L71.3511 146.722C76.7835 143.585 83.0592 143.233 88.5263 145.221C92.8741 146.803 96.7105 149.865 99.2047 154.185C104.835 163.937 101.494 176.408 91.7413 182.039L58.8187 201.046C53.3863 204.183 47.1106 204.535 41.6435 202.547Z" fill="#D9D9D9"/>
<path d="M168.388 79.3587C178.141 73.7281 181.482 61.2576 175.852 51.5051L160.762 46.0129C166.393 55.7654 163.051 68.2359 153.299 73.8665L168.388 79.3587Z" fill="#D9D9D9"/>
<path d="M175.853 51.5051C173.359 47.185 169.522 44.1229 165.174 42.5414L150.093 37.0521C154.437 38.6344 158.271 41.6954 160.763 46.013L175.853 51.5051Z" fill="#D9D9D9"/>
<path d="M106.829 187.531C116.581 181.9 119.923 169.43 114.292 159.677L99.2026 154.185C104.833 163.938 101.492 176.408 91.7393 182.039L106.829 187.531Z" fill="#D9D9D9"/>
<path d="M168.71 5.74588C178.462 0.115265 181.804 -12.3552 176.173 -22.1077L161.083 -27.5999C166.714 -17.8474 163.373 -5.37686 153.62 0.253746L168.71 5.74588Z" fill="#D9D9D9"/>
<path d="M114.294 159.677C111.8 155.357 107.964 152.295 103.616 150.714L88.5341 145.224C92.8787 146.807 96.712 149.868 99.2047 154.185L114.294 159.677Z" fill="#D9D9D9"/>
<path d="M73.9079 206.539L106.83 187.531L91.741 182.039L58.8184 201.047L73.9079 206.539Z" fill="#D9D9D9"/>
<path d="M45.6784 150.206L168.39 79.3583L153.3 73.8662L30.5889 144.714L45.6784 150.206Z" fill="#D9D9D9"/>
<path d="M56.7311 208.039C62.1982 210.028 68.474 209.675 73.9063 206.539L58.8168 201.047C53.3845 204.183 47.1087 204.536 41.6416 202.547L56.7311 208.039Z" fill="#D9D9D9"/>
<path d="M75.9284 59.3134L168.71 5.74579L153.621 0.253662L60.8389 53.8213L75.9284 59.3134Z" fill="#D9D9D9"/>
<path d="M86.4397 152.214C91.8721 149.077 98.1478 148.725 103.615 150.713L88.5254 145.221C83.0583 143.233 76.7826 143.585 71.3502 146.722L86.4397 152.214Z" fill="url(#paint0_linear_753_2513)"/>
<path d="M53.5163 171.222L86.4389 152.214L71.3494 146.721L38.4268 165.729L53.5163 171.222Z" fill="url(#paint1_linear_753_2513)"/>
<path d="M53.5185 171.222C43.766 176.852 40.4245 189.323 46.0552 199.075L30.9656 193.583C25.335 183.831 28.6765 171.36 38.429 165.73L53.5185 171.222Z" fill="#D9D9D9"/>
<path d="M53.5185 171.222C43.766 176.852 40.4245 189.323 46.0552 199.075L30.9656 193.583C25.335 183.831 28.6765 171.36 38.429 165.73L53.5185 171.222Z" fill="url(#paint2_linear_753_2513)"/>
<path d="M53.5185 171.222C43.766 176.852 40.4245 189.323 46.0552 199.075L30.9656 193.583C25.335 183.831 28.6765 171.36 38.429 165.73L53.5185 171.222Z" fill="url(#paint3_linear_753_2513)"/>
<path d="M56.7255 208.036C52.3809 206.454 48.5479 203.393 46.0552 199.075L30.9656 193.583C33.4599 197.903 37.2959 200.966 41.6437 202.547L56.7255 208.036Z" fill="#D9D9D9"/>
<path d="M56.7255 208.036C52.3809 206.454 48.5479 203.393 46.0552 199.075L30.9656 193.583C33.4599 197.903 37.2959 200.966 41.6437 202.547L56.7255 208.036Z" fill="url(#paint4_linear_753_2513)"/>
<path d="M56.7255 208.036C52.3809 206.454 48.5479 203.393 46.0552 199.075L30.9656 193.583C33.4599 197.903 37.2959 200.966 41.6437 202.547L56.7255 208.036Z" fill="url(#paint5_linear_753_2513)"/>
<path d="M147.998 44.0415C153.431 40.9051 159.706 40.5526 165.173 42.5412L150.084 37.0491C144.617 35.0604 138.341 35.413 132.909 38.5494L10.1973 109.397L25.2868 114.889L147.998 44.0415Z" fill="url(#paint6_linear_753_2513)"/>
<path d="M148.318 -29.5716C153.751 -32.7079 160.026 -33.0605 165.494 -31.0718L150.404 -36.564C144.937 -38.5526 138.661 -38.2 133.229 -35.0637L40.4473 18.504L55.5368 23.9961L148.318 -29.5716Z" fill="#2565D0"/>
<path d="M148.318 -29.5716C153.751 -32.7079 160.026 -33.0605 165.494 -31.0718L150.404 -36.564C144.937 -38.5526 138.661 -38.2 133.229 -35.0637L40.4473 18.504L55.5368 23.9961L148.318 -29.5716Z" fill="url(#paint7_linear_753_2513)"/>
<path d="M28.5026 151.706C33.9697 153.695 40.2455 153.342 45.6778 150.206L30.5883 144.714C25.156 147.85 18.8802 148.203 13.4131 146.214L28.5026 151.706Z" fill="#D9D9D9"/>
<path d="M58.7516 60.8137C64.2187 62.8024 70.4944 62.4498 75.9268 59.3134L60.8373 53.8213C55.4049 56.9577 49.1292 57.3102 43.6621 55.3216L58.7516 60.8137Z" fill="#D9D9D9"/>
<path d="M25.288 114.894C15.5355 120.525 12.1941 132.995 17.8247 142.748L2.73518 137.255C-2.89543 127.503 0.44602 115.032 10.1985 109.402L25.288 114.894Z" fill="url(#paint8_linear_753_2513)"/>
<path d="M28.495 151.708C24.1504 150.126 20.3174 147.065 17.8247 142.748L2.73518 137.255C5.2294 141.576 9.06546 144.638 13.4132 146.219L28.495 151.708Z" fill="url(#paint9_linear_753_2513)"/>
<path d="M55.539 23.9963C45.7865 29.6269 42.4451 42.0974 48.0757 51.8499L32.9862 46.3577C27.3555 36.6052 30.697 24.1348 40.4495 18.5042L55.539 23.9963Z" fill="url(#paint10_linear_753_2513)"/>
<path d="M55.539 23.9963C45.7865 29.6269 42.4451 42.0974 48.0757 51.8499L32.9862 46.3577C27.3555 36.6052 30.697 24.1348 40.4495 18.5042L55.539 23.9963Z" fill="url(#paint11_linear_753_2513)"/>
<path d="M58.746 60.8108C54.4014 59.2285 50.5684 56.1674 48.0757 51.8499L32.9862 46.3577C35.4804 50.6779 39.3164 53.74 43.6642 55.3214L58.746 60.8108Z" fill="url(#paint12_linear_753_2513)"/>
<path d="M58.746 60.8108C54.4014 59.2285 50.5684 56.1674 48.0757 51.8499L32.9862 46.3577C35.4804 50.6779 39.3164 53.74 43.6642 55.3214L58.746 60.8108Z" fill="url(#paint13_linear_753_2513)"/>
<rect x="37.8779" y="34.1917" width="147.916" height="40.7805" rx="20.3903" transform="rotate(-30 37.8779 34.1917)" fill="#2565D0"/>
<rect x="7.62695" y="125.084" width="182.475" height="40.7805" rx="20.3903" transform="rotate(-30 7.62695 125.084)" fill="#2565D0"/>
<rect x="35.8574" y="181.417" width="78.7962" height="40.7805" rx="20.3903" transform="rotate(-30 35.8574 181.417)" fill="#2565D0"/>
</g>
<defs>
<linearGradient id="paint0_linear_753_2513" x1="106.368" y1="126.458" x2="72.6338" y2="129.362" gradientUnits="userSpaceOnUse">
<stop offset="" stop-color="#B3C7FF"/>
<stop offset="1" stop-color="#2568D9"/>
</linearGradient>
<linearGradient id="paint1_linear_753_2513" x1="106.368" y1="126.458" x2="72.6338" y2="129.362" gradientUnits="userSpaceOnUse">
<stop offset="" stop-color="#B3C7FF"/>
<stop offset="1" stop-color="#2568D9"/>
</linearGradient>
<linearGradient id="paint2_linear_753_2513" x1="45.7546" y1="167.676" x2="35.3169" y2="207.821" gradientUnits="userSpaceOnUse">
<stop offset="" stop-color="#2565D0"/>
<stop offset="1" stop-color="#414F84"/>
</linearGradient>
<linearGradient id="paint3_linear_753_2513" x1="40.9245" y1="170.047" x2="35.317" y2="207.821" gradientUnits="userSpaceOnUse">
<stop offset="" stop-color="#2669D9"/>
<stop offset="1" stop-color="#414F84"/>
</linearGradient>
<linearGradient id="paint4_linear_753_2513" x1="45.7546" y1="167.676" x2="35.3169" y2="207.821" gradientUnits="userSpaceOnUse">
<stop offset="" stop-color="#2565D0"/>
<stop offset="1" stop-color="#414F84"/>
</linearGradient>
<linearGradient id="paint5_linear_753_2513" x1="40.9245" y1="170.047" x2="35.317" y2="207.821" gradientUnits="userSpaceOnUse">
<stop offset="" stop-color="#2669D9"/>
<stop offset="1" stop-color="#414F84"/>
</linearGradient>
<linearGradient id="paint6_linear_753_2513" x1="165.173" y1="15.0338" x2="113.586" y2="13.5518" gradientUnits="userSpaceOnUse">
<stop offset="" stop-color="#B3C7FF"/>
<stop offset="1" stop-color="#2568D9"/>
</linearGradient>
<linearGradient id="paint7_linear_753_2513" x1="165.494" y1="-54.0382" x2="123.871" y2="-55.2727" gradientUnits="userSpaceOnUse">
<stop offset="" stop-color="#B3C7FF"/>
<stop offset="1" stop-color="#2568D9"/>
</linearGradient>
<linearGradient id="paint8_linear_753_2513" x1="12.6941" y1="113.719" x2="7.0865" y2="151.493" gradientUnits="userSpaceOnUse">
<stop offset="" stop-color="#2669D9"/>
<stop offset="1" stop-color="#414F84"/>
</linearGradient>
<linearGradient id="paint9_linear_753_2513" x1="12.6941" y1="113.719" x2="7.0865" y2="151.493" gradientUnits="userSpaceOnUse">
<stop offset="" stop-color="#2669D9"/>
<stop offset="1" stop-color="#414F84"/>
</linearGradient>
<linearGradient id="paint10_linear_753_2513" x1="47.7751" y1="20.4507" x2="37.3375" y2="60.5955" gradientUnits="userSpaceOnUse">
<stop offset="" stop-color="#2565D0"/>
<stop offset="1" stop-color="#414F84"/>
</linearGradient>
<linearGradient id="paint11_linear_753_2513" x1="42.945" y1="22.8214" x2="37.3375" y2="60.5955" gradientUnits="userSpaceOnUse">
<stop offset="" stop-color="#2669D9"/>
<stop offset="1" stop-color="#414F84"/>
</linearGradient>
<linearGradient id="paint12_linear_753_2513" x1="47.7751" y1="20.4507" x2="37.3375" y2="60.5955" gradientUnits="userSpaceOnUse">
<stop offset="" stop-color="#2565D0"/>
<stop offset="1" stop-color="#414F84"/>
</linearGradient>
<linearGradient id="paint13_linear_753_2513" x1="42.945" y1="22.8214" x2="37.3375" y2="60.5955" gradientUnits="userSpaceOnUse">
<stop offset="" stop-color="#2669D9"/>
<stop offset="1" stop-color="#414F84"/>
</linearGradient>
<clipPath id="clip0_753_2513">
<rect width="186" height="221" fill="white"/>
</clipPath>
</defs>
</svg>
